<svg id="Layer_1" data-name="Layer 1" xmlns="http://www.w3.org/2000/svg" viewBox="0 0 512 512"><defs><style>.cls-1{fill:#fefefe;}.cls-2{fill:#3fbfed;}.cls-3{fill:#7fd4f3;}.cls-4{fill:#80d5f3;}.cls-5{fill:#82d5f3;}.cls-6{fill:#bce8f8;}.cls-7{fill:#c1eaf8;}.cls-8{fill:#bee9f8;}.cls-9{fill:#00aae8;}</style></defs><path class="cls-1" d="M243.773,512.08q-120.828,0-241.656.036c-1.533,0-1.995-.244-1.995-1.918q.072-254,0-508C.119.469.464.127,2.19.128Q256.088.2,509.986.12c1.9,0,2.135.51,2.134,2.219q-.069,120.932-.04,241.864a.417.417,0,0,1-.594-.076c-.785-2.105-.557-4.351-.706-6.508a249.438,249.438,0,0,0-7.892-46.938,255.373,255.373,0,0,0-73.346-121.6,250.948,250.948,0,0,0-50.064-36.225,255.112,255.112,0,0,0-44.241-19.266,261.052,261.052,0,0,0-47.716-10.66,253.986,253.986,0,0,0-42.253-1.679,244.807,244.807,0,0,0-46.095,6.278,260.851,260.851,0,0,0-51.206,17.712,253.36,253.36,0,0,0-57.538,37.25c-5.443,4.661-10.785,9.443-15.775,14.582a263.824,263.824,0,0,0-40.666,53.874A254.016,254.016,0,0,0,2.323,230.869a253.815,253.815,0,0,0,7.654,92.343,256.414,256.414,0,0,0,21.216,53.3,259.594,259.594,0,0,0,29.153,43.148,254.155,254.155,0,0,0,22.577,23.739A250.987,250.987,0,0,0,129.985,478,254.308,254.308,0,0,0,231.9,510.317c3.933.377,7.916.3,11.8,1.167A.418.418,0,0,1,243.773,512.08Z" transform="translate(-0.12 -0.12)"/><path class="cls-1" d="M512.08,268.478q0,120.843.04,241.686c0,1.6-.36,1.957-1.957,1.956q-120.844-.067-241.689-.04a.413.413,0,0,1,.069-.589c2.178-.758,4.488-.563,6.717-.722a247.975,247.975,0,0,0,33.457-4.729,254.849,254.849,0,0,0,107.932-51.4,245.985,245.985,0,0,0,25.286-23.387,257.452,257.452,0,0,0,35.924-48.436,253.492,253.492,0,0,0,30.087-84.129c1.315-7.756,2.241-15.567,2.825-23.424.166-2.229-.036-4.538.718-6.719A.413.413,0,0,1,512.08,268.478Z" transform="translate(-0.12 -0.12)"/><path class="cls-2" d="M262.938,512.08h-13.2a.489.489,0,0,1,.212-.681,42.42,42.42,0,0,1,12.781,0A.494.494,0,0,1,262.938,512.08Z" transform="translate(-0.12 -0.12)"/><path class="cls-2" d="M512.08,250.165v12.35a.488.488,0,0,1-.68-.208,37.306,37.306,0,0,1,0-11.935A.492.492,0,0,1,512.08,250.165Z" transform="translate(-0.12 -0.12)"/><path class="cls-3" d="M512.08,250.165c-.128-.014-.255-.025-.383-.035a2.841,2.841,0,0,1-.269-3.213.464.464,0,0,1,.652-.159Z" transform="translate(-0.12 -0.12)"/><path class="cls-3" d="M511.675,262.534a2.107,2.107,0,0,1,.405-.019v3.407a.46.46,0,0,1-.649-.161A2.9,2.9,0,0,1,511.675,262.534Z" transform="translate(-0.12 -0.12)"/><path class="cls-4" d="M249.7,511.7q.025.189.036.381h-3.407a.459.459,0,0,1,.161-.648A2.826,2.826,0,0,1,249.7,511.7Z" transform="translate(-0.12 -0.12)"/><path class="cls-5" d="M262.938,512.08a1.54,1.54,0,0,1,.022-.4,2.9,2.9,0,0,1,3.225-.25.464.464,0,0,1,.16.651Z" transform="translate(-0.12 -0.12)"/><path class="cls-6" d="M512.08,246.758a1.128,1.128,0,0,0-.352-.031,1.664,1.664,0,0,1,0-2.549.742.742,0,0,1,.35.025Z" transform="translate(-0.12 -0.12)"/><path class="cls-7" d="M511.718,265.952a1.7,1.7,0,0,0,.362-.03v2.556a2.363,2.363,0,0,1-.366.019A1.684,1.684,0,0,1,511.718,265.952Z" transform="translate(-0.12 -0.12)"/><path class="cls-7" d="M246.3,511.709a2.307,2.307,0,0,1,.026.371h-2.555a2.363,2.363,0,0,0-.019-.366A1.7,1.7,0,0,1,246.3,511.709Z" transform="translate(-0.12 -0.12)"/><path class="cls-8" d="M266.345,512.08a1.519,1.519,0,0,1,.02-.381,1.373,1.373,0,0,1,2.133.033q-.007.174-.024.348Z" transform="translate(-0.12 -0.12)"/><path class="cls-9" d="M268.5,511.732l-2.133-.033-3.405-.02L249.7,511.7l-3.4.011-2.548,0c-60.546-3.395-113.585-25.155-158.658-65.686-38.7-34.8-64.3-77.709-77.073-128.183a255.856,255.856,0,0,1,19.3-175.493A257.319,257.319,0,0,1,175.287,13.688a250.938,250.938,0,0,1,55.786-11.9,254.969,254.969,0,0,1,62.579,1.462A251.224,251.224,0,0,1,395.034,41.558a255.059,255.059,0,0,1,90.418,101.32A249.708,249.708,0,0,1,509.6,221.322c1.035,7.592,1.727,15.209,2.13,22.856q0,1.275,0,2.549-.015,1.7-.032,3.4l-.021,12.4q.021,1.71.043,3.418,0,1.272,0,2.545C508.32,330.048,486,383.777,444.392,429.216c-35.652,38.936-79.5,64.243-130.9,76.347A247.07,247.07,0,0,1,268.5,511.732Z" transform="translate(-0.12 -0.12)"/><path class="cls-1" d="M35.875,256.379c-.2-121.8,99.724-221.789,222.8-220.513,119.069,1.235,217.971,98.22,218,220.423.028,121.92-99.136,220.6-221.206,220.461C134.732,476.616,35.875,377.48,35.875,256.379Z" transform="translate(-0.12 -0.12)"/><path class="cls-9" d="M123.973,160.775H394.227c-3.137,2.646-5.952,5.044-8.791,7.411q-49.675,41.425-99.358,82.843c-7.627,6.359-15.291,12.673-22.853,19.109-1.283,1.093-1.917.436-2.805-.274q-36.561-29.233-73.129-58.456-30.667-24.507-61.341-49C125.41,161.972,124.882,161.525,123.973,160.775Z" transform="translate(-0.12 -0.12)"/><path class="cls-9" d="M388.134,344.04c-2.605.257-248.208.36-256.811.127,1.677-1.842,3.137-3.491,4.643-5.1q40.4-43.047,80.77-86.119c1.371-1.466,2.136-1.229,3.524-.111,13.477,10.857,27.026,21.623,40.506,32.476,1.135.914,1.729.816,2.793-.077,12.5-10.487,25.053-20.9,37.555-31.379,1.045-.876,1.611-1.137,2.7.03q21.979,23.579,44.06,47.063,19.354,20.641,38.713,41.276C387.067,342.744,387.5,343.3,388.134,344.04Z" transform="translate(-0.12 -0.12)"/><path class="cls-9" d="M123.688,334.888V176.237c.75-.2,1.063.383,1.472.71q40.991,32.722,82,65.421c1.687,1.341,1.562,2.006.2,3.45q-35.235,37.384-70.375,74.86C132.675,325.27,128.377,329.877,123.688,334.888Z" transform="translate(-0.12 -0.12)"/><path class="cls-9" d="M394.9,333.812c-6.177-6.579-12.086-12.87-17.99-19.166q-30.851-32.9-61.7-65.8-.509-.543-1.007-1.1c-2.45-2.726-2.457-2.735.275-5.013q39.707-33.111,79.417-66.214c.257-.214.528-.408,1-.772Z" transform="translate(-0.12 -0.12)"/></svg>