<svg id="Layer_1" data-name="Layer 1" xmlns="http://www.w3.org/2000/svg" viewBox="0 0 512 512"><defs><style>.cls-1{fill:#1877f1;}.cls-2{fill:#fefefe;}</style></defs><path class="cls-1" d="M.1,275.994V236.009c.733-7.934,1.028-15.9,1.679-23.838,1.212-14.789,5.637-28.854,10.521-42.737A251.894,251.894,0,0,1,52.292,96.743a259.661,259.661,0,0,1,74-64.5A255.667,255.667,0,0,1,199.447,3.66C209.9,1.323,220.572,1.448,231.158.585c1.95-.159,3.975.557,5.849-.487h37.986c8.29.686,16.616.933,24.9,1.642C314.552,3,328.536,7.356,342.325,12.205a252.4,252.4,0,0,1,72.787,39.973,259.819,259.819,0,0,1,64.6,74.035,255.564,255.564,0,0,1,28.622,73.208c2.34,10.461,2.217,21.14,3.08,31.733.158,1.952-.557,3.979.487,5.855v38.985c-.747,7.959-.94,15.963-1.688,23.912-1.692,18-7.321,35.016-13.916,51.7a254.389,254.389,0,0,1-48.087,77.164A255.941,255.941,0,0,1,336.162,501.9c-11.688,3.849-23.556,7.254-35.924,8.356-4.751.424-6.057-.567-6.522-5.219-.2-1.991-.16-3.994-.161-5.993q-.015-79.716.006-159.43c.006-11.821.237-12.026,12.008-12.062,13.327-.041,26.655.043,39.982-.037,6.459-.039,8.02-1.153,9.044-7.5,2.946-18.242,5.894-36.486,8.579-54.769.753-5.128-.824-6.729-6.525-6.768-15.326-.1-30.653-.028-45.979-.039-2.166,0-4.332.009-6.5-.014-9.926-.106-10.537-.663-10.6-10.475-.079-12.827-.051-25.655-.016-38.483.074-27.5,15.307-43.095,42.855-43.812,7.66-.2,15.327.012,22.989-.078,6.672-.079,8.047-1.361,8.084-7.839q.126-21.489,0-42.98c-.039-6.279-1.044-7.664-7.3-8.523-23.614-3.243-47.3-6.043-71.055-1.651-16.524,3.056-31.512,9.751-43.808,21.5-12.558,12-19.8,27.026-23.746,43.734a119.4,119.4,0,0,0-3.167,28.724c.161,15.991.073,31.985.032,47.978-.03,11.541-.355,11.872-11.681,11.908-14.826.046-29.653-.022-44.48.029-7.609.026-8.761,1.147-8.782,8.654q-.073,25.988,0,51.977c.023,7.205,1.24,8.4,8.482,8.434,15.826.073,31.653-.081,47.478.075,7.97.078,8.922.99,8.937,9.049q.151,82.713.025,165.426,0,1-.065,2c-.37,5.719-1.485,6.624-7.109,6.066-14.366-1.424-28.074-5.6-41.588-10.33a251.04,251.04,0,0,1-80.551-46.3c-33.716-28.767-58.891-63.672-74.672-105.186C8.477,332.64,3.317,316.7,1.78,299.889,1.054,291.943.835,283.948.1,275.994Z" transform="translate(0 0)"/><path class="cls-2" d="M.1,275.994c1.285,8.3,2.421,16.636,3.879,24.911q13.18,74.789,65.2,130.152c38.953,41.436,86.652,67.151,142.723,77.241,3.358.6,4.186.126,4.18-3.343q-.144-85.455,0-170.91c0-3.279-.9-4.169-4.159-4.143-18.822.148-37.646-.01-56.468.148-3.373.028-4.536-.682-4.507-4.317q.267-32.73,0-65.464c-.029-3.6,1.065-4.376,4.478-4.345,18.656.164,37.314-.027,55.969.167,3.682.038,4.753-.828,4.711-4.634-.212-18.987-.425-37.985-.014-56.966.524-24.235,6.585-46.743,23.062-65.411,14.826-16.8,34.056-25.2,55.84-27.94,24.013-3.02,47.828.009,71.589,3.42,2.685.385,3.45,1.417,3.432,4.115-.124,18.489-.169,36.981.025,55.469.037,3.591-1.4,3.923-4.357,3.955-12.146.129-24.332-.874-36.432.7-20.1,2.609-32.211,15.353-32.979,35.58-.612,16.135-.142,32.309-.362,48.463-.047,3.422,1.794,3.183,4.066,3.18,20.822-.03,41.645.065,62.466-.094,3.724-.028,4.737.574,4.058,4.648q-5.455,32.73-10.194,65.579c-.489,3.352-1.824,3.9-4.77,3.877-16.99-.113-33.983.064-50.971-.148-3.735-.046-4.683.917-4.675,4.666q.192,84.956,0,169.911c-.009,4.023.926,4.4,4.7,3.749C405.7,490.092,490.342,405.6,508.032,300.907c1.4-8.285,2.585-16.607,3.87-24.913q0,115.956.1,231.913C512,511.33,511.326,512,507.9,512Q256,511.838,4.1,512c-3.422,0-4.1-.67-4.1-4.093Q.19,391.951.1,275.994Z" transform="translate(0 0)"/><path class="cls-2" d="M511.9,237.009c-1.284-8.632-2.253-17.324-3.9-25.886C492.425,130.2,448.307,69.853,376.334,30.044,345.549,13.016,312.277,3.619,277.16.929c-.812-.062-1.68.061-2.167-.831Q391.326.1,507.658,0c3.6-.006,4.348.74,4.342,4.342Q511.807,120.676,511.9,237.009Z" transform="translate(0 0)"/><path class="cls-2" d="M237.007.1c-8.631,1.284-17.324,2.253-25.885,3.9C130.2,19.576,69.864,63.7,30.034,135.669,13.244,166,3.985,198.8.976,233.348c-.081.932.233,2.047-.878,2.661Q.1,120.176,0,4.342C-.006.738.742-.006,4.343,0Q120.675.194,237.007.1Z" transform="translate(0 0)"/></svg>