<svg id="Layer_1" data-name="Layer 1" xmlns="http://www.w3.org/2000/svg" viewBox="0 0 512 512"><defs><style>.cls-1{fill:#fefefe;}.cls-2{fill:#5f5f5f;}.cls-3{fill:#fff;}</style></defs><path d="M273.993,511.9H236.008c-11.558-1-23.115-1.871-34.491-4.43-40.707-9.157-77.317-26.753-109.449-53.362a255.457,255.457,0,0,1-66.4-83.437,247.809,247.809,0,0,1-24.4-79.393c-.608-4.728-.243-9.567-1.163-14.289V235.009c1.085-11.369,2.024-22.745,4.523-33.941A258.66,258.66,0,0,1,141.43,25.606,246.084,246.084,0,0,1,220.738,1.255C225.79.607,230.953.986,236.008.1H265c3.115,1.149,6.343.218,9.5.515C304.4.43,332.337,8.894,359.457,20.468a244.01,244.01,0,0,1,65.51,41.617,255.431,255.431,0,0,1,55.713,68.7c15.256,27.678,25.644,57.031,29.833,88.463.742,5.568.306,11.227,1.389,16.762v39.984c-1.04,11.385-1.823,22.783-4.325,34-9.386,42.095-27.71,79.727-55.807,112.518-28.392,33.136-62.7,58-103.518,73.651a238.4,238.4,0,0,1-56.476,14.523C285.88,511.407,279.887,510.991,273.993,511.9Z" transform="translate(0)"/><path class="cls-1" d="M273.993,511.9c6.318-1.951,12.943-1.749,19.4-2.742q93.735-14.407,156.017-85.837c33.474-38.311,53.231-83.034,60.321-133.386.656-4.658.306-9.475,2.167-13.946q0,115.956.1,231.912c.005,3.423-.672,4.1-4.095,4.1Q390.948,511.813,273.993,511.9Z" transform="translate(0)"/><path class="cls-1" d="M.1,276.993c2.328,5.378,1.881,11.23,2.779,16.844Q19.736,399.248,105.458,462.753c38.124,28.282,81.23,43.984,128.518,48.177.8.071,1.695-.06,2.032.974q-115.956,0-231.911.1c-3.423.006-4.1-.672-4.1-4.1Q.191,392.45.1,276.993Z" transform="translate(0)"/><path class="cls-1" d="M511.9,236.009c-2.213-5.572-1.878-11.563-2.725-17.347-15.653-106.843-97.13-192.5-203.4-213.68A207.576,207.576,0,0,0,275.148.95q-.616-.18-.481-.5c.1-.235.208-.353.326-.353Q391.326.1,507.657,0c3.6-.006,4.349.738,4.343,4.342Q511.805,120.175,511.9,236.009Z" transform="translate(0)"/><path class="cls-1" d="M236.008.1c-5.6,2.2-11.606,1.845-17.408,2.72A256.311,256.311,0,0,0,5.353,203.914,273.25,273.25,0,0,0,1.14,232.028c-.107,1.037.52,2.42-1.042,2.981Q.1,119.676,0,4.342C-.006.738.742-.006,4.343,0Q120.174.194,236.008.1Z" transform="translate(0)"/><path class="cls-2" d="M274.993.1a1.794,1.794,0,0,0,.155.852c-3.432.289-6.874.7-10.151-.852Z" transform="translate(0)"/><path class="cls-1" d="M294.93,350.549c12.684-1.621,24.388-3.721,35.758-7.464,34.491-11.355,53.411-35.76,59.139-70.935,2.905-17.838,3.812-35.737-1.67-53.4a78.008,78.008,0,0,0-15.438-28.211c-2.007-2.327-2.208-4.219-1.365-7.079,4.977-16.886,3.407-33.515-2.287-49.98-1-2.877-2.765-3.376-5.272-3.324-10.019.2-19.226,3.466-28.207,7.522a141.216,141.216,0,0,0-22.952,13,7.711,7.711,0,0,1-6.966,1.139,197.253,197.253,0,0,0-99.229-.032,8.507,8.507,0,0,1-7.393-1.431c-12.274-8.027-24.912-15.6-39.461-18.531-18.257-3.678-15.493-3.227-19.5,11.663a71.563,71.563,0,0,0,.967,41.349c.559,1.722.583,2.963-.738,4.467-17.263,19.672-22.088,43.024-19.989,68.373,1.51,18.251,5.263,35.862,15.34,51.546,13.845,21.549,34.756,32.191,58.88,37.657,7.091,1.606,14.3,2.693,21.941,4.108a47.607,47.607,0,0,0-12.522,26.39c-.27,1.829-1.421,2.383-2.879,2.977-22.212,9.065-44.913,5.554-58.923-17.662-6.4-10.6-14.845-18.722-27.109-22.164a24.3,24.3,0,0,0-11.373-.5c-4.909.966-5.843,3.55-2.544,7.208a24.578,24.578,0,0,0,5.294,4.519,54.219,54.219,0,0,1,23,28.691c9.413,26.333,33.222,37.1,61.3,34.175,3.994-.417,9.143-3.42,11.617-.748,2.025,2.186.6,7.606.632,11.593.061,7.329.111,14.659.092,21.988-.026,9.832-6.615,14.517-16.009,11.218-34.891-12.254-64.924-31.908-89.587-59.52-29.774-33.333-48.25-72.231-52.961-116.6C36.282,204.941,61.855,139.91,121.963,89.8c42.3-35.262,92.079-51.683,146.853-47.211C358.063,49.873,421.2,96.006,454.594,178.952,499.7,291,439.286,419.557,325.187,458.592c-10,3.422-16.254-1.107-16.244-11.836.016-19.323.162-38.646.083-57.969C308.969,374.751,305.534,361.815,294.93,350.549Z" transform="translate(0)"/><polygon class="cls-3" points="233.16 510.819 250.426 511.904 262.777 511.904 235.059 511.92 233.16 510.819"/><path class="cls-3" d="M258.181,511.9" transform="translate(0)"/><polyline class="cls-3" points="263.777 511.904 271.149 511.702 283.309 510.213 273.968 511.936"/><path class="cls-3" d="M1.106,232.3c.064,16.532.766,52.691.766,52.691L.053,277.9l.032-45.766" transform="translate(0)"/><path class="cls-3" d="M282.851.723c-3.191.256-59.3.958-59.3.958L235.064.021l46.787.043" transform="translate(0)"/><path class="cls-3" d="M509.957,228.6l1.66,18.255.192,12.192-1.532,27.574,1.649-10.564.01-40.468" transform="translate(0)"/></svg>