<svg id="Layer_1" data-name="Layer 1" xmlns="http://www.w3.org/2000/svg" viewBox="0 0 1026 1024"><defs><style>.cls-1{fill:#fefefe;}.cls-2{fill:#383838;}.cls-3{fill:#f9cc00;}.cls-4{fill:#3b3b37;}.cls-5{fill:#3c3b37;}</style></defs><path class="cls-1" d="M510.91,1023.812q-251.834,0-503.668.188c-6.78.01-8.2-1.27-8.194-8.161Q-.623,512.148-1,8.456C-1.006.612,1.377.045,7.944.049Q512.112.288,1016.28,0c7.132,0,8.7,1.389,8.7,8.661q-.341,503.192.022,1006.383c.006,8-2.364,8.939-9.423,8.93Q763.244,1023.661,510.91,1023.812Z" transform="translate(1 0)"/><path class="cls-2" d="M485.6,903.92c6.581,7.47,12.872,12.98,16.651,20.484,2.739,5.439,4.268,11.092-2.14,14.842-5.641,3.3-10.486.793-13.439-4.451-13.188-23.412-33.36-33.226-59.722-31.622a14.4,14.4,0,0,1-10.275-3.14c-3.256-2.722-3.112-6.477-2.508-10.136.81-4.9,4.858-3.578,7.943-3.658,5.982-.155,11.971,0,17.955-.08,4.938-.066,6.389-2.253,4.6-7.077-6.018-16.18-12.088-32.351-17.567-48.717-2-5.963-6.5-5.754-10.942-6.592-48.137-9.09-93.374-25.474-133.5-54.231-26.524-19.009-49.152-41.665-63.3-71.717-3.583-7.613-5.871-15.707-5.4-24.12.672-11.971,7.752-19.432,18.616-23.479,3.011-1.121,6.784-.715,6.361-5.772-1.29-15.436,4.048-29.539,9.64-43.389,17.384-43.051,39.463-83.483,68.44-119.9,5.8-7.284,11.993-14.573,21.379-17.275,5.4-1.553,3.91-5.424,4.039-8.757,1.537-39.951,3.939-79.79,14.017-118.728,13.773-53.219,37.712-100.04,83.482-133.083a170.44,170.44,0,0,1,36.689-19.876c1.839-.736,4.024-1.029,5.48-2.224,5.981-4.905,3.475-12.99,6.835-19.165,2.811-5.163,9.275-8.775,5.453-17.464-5.868-13.344.779-26.743,14.179-32.757,3.336-1.5,5.994-2.648,7.259-6.982,5.548-19.013,20.446-25.951,39.722-19.12C584.877,96.13,607,129.529,605.557,163.67c-.447,10.608,2.419,14.881,12.261,19,44.6,18.684,73.358,53.52,93.8,96.205,21.357,44.594,31.662,92.172,37.775,140.858,1.7,13.539,2.849,27.147,4.349,40.713.313,2.824-.26,6.42,3.8,7.211,10.309,2.006,15.353,10.245,20.264,17.994,22.629,35.709,35.365,74.311,31.493,117.133-3.111,34.4-27.994,62.959-61.489,70.091-6.96,1.481-7.033,5.937-8.492,10.281-16.951,50.467-46.454,90.806-93.6,117a208.668,208.668,0,0,1-49.777,19.759c-5.638,1.444-6.673,3.453-4.363,8.819a239.19,239.19,0,0,1,8.737,24.357c2.307,7.511,6.72,10.616,14.677,10.315,14.609-.554,29.247-.466,43.872-.416,3.636.012,8.714-1.854,9.744,3.994.916,5.2-1.739,9.006-6.54,11.079-7.193,3.106-14.771,3.545-22.46,2.879-6.169-.534-12.332-1.138-20.841-1.928,6.684,8.144,12.065,14.194,16.834,20.7,3.029,4.13,5.01,9.344.682,13.665-3.783,3.777-8.814,5.184-13.251.674a41.293,41.293,0,0,1-6.434-8.8c-9.669-17.322-24.6-25.385-44.1-25.739-5.98-.108-12.029-.122-17.746-2.124-5.059-1.772-9.213-5.086-8.2-10.954,1.013-5.886,6.424-3.339,9.865-3.393,23.972-.376,23.295-.059,16.153-23.183-3.205-10.375-7.114-13.834-18.276-11.948-31.981,5.406-64.269,4.3-96.454,1.537-7.438-.639-8.606.922-5.8,7.75,4.665,11.347,8.6,23,12.758,34.553,3.574,9.931,10.124,14.962,21.08,14.552,12.286-.461,24.606.056,36.9-.183,5.138-.1,9.379.445,10.409,6.488,1.123,6.586-3.423,9.049-8.392,10.365-11.111,2.944-22.442,1.747-33.718.961C489.816,903.843,488.539,903.92,485.6,903.92Z" transform="translate(1 0)"/><path class="cls-3" d="M741.6,547.852c.626,41.51-3.462,84.837-16.825,126.763-24.361,76.428-77,121.62-155.441,134.275-84.491,13.631-166.951,5.718-244.611-33.237-30.953-15.526-57.915-36.415-78.439-64.844-6.059-8.393-11.155-17.3-14.143-27.324-3.611-12.113-1.143-17.15,11.514-18.475,12.846-1.346,25.915-.395,38.829-1.284,37.623-2.59,68.371-18.335,89.838-49.9,27.81-40.894,22.644-105.447-10.889-141.937-1.956-2.128-2.988-4.1-2.894-6.983,1.9-58.362,5.733-116.277,29.729-170.889,31.681-72.1,97.153-113.152,175.646-107.526,59.925,4.295,100.19,38.224,127.685,89.648,22.1,41.336,33.021,86.163,39.438,132.087C737.391,453.717,741.911,499.453,741.6,547.852Z" transform="translate(1 0)"/><path class="cls-3" d="M373.012,555.521c2.063,66.128-62.923,96.9-106.88,90.79-11.647-1.62-12.6-2.639-10.074-13.931,7.13-31.891,22.8-60.135,38.488-88.261,11.011-19.736,22.949-38.969,38.225-55.825,9.813-10.828,13.55-10.852,22.229,1.156C368.355,507.928,372.842,529.174,373.012,555.521Z" transform="translate(1 0)"/><path class="cls-3" d="M756.321,484.775c11.912,13.628,19,27.293,24.439,41.8,9.9,26.386,16.563,53.372,10.758,81.783-4.9,23.979-20.355,38.689-43.989,47.688C760.345,599.6,759.9,543.455,756.321,484.775Z" transform="translate(1 0)"/><path class="cls-3" d="M502.547,176.146c3.087-16.375,15.829-17.775,29.634-20.047-5.985-3.314-10.568-5.572-14.857-8.294-5.667-3.6-10.208-8.37-7.214-15.645,2.9-7.044,9.44-6.509,15.435-5.264,5.775,1.2,11.4,3.136,18.255,5.08-3.385-4.282-6.345-7.59-8.8-11.238-3.523-5.236-5.426-10.971-1.14-16.66,4.475-5.939,10.623-4.848,16.3-2.439,20.557,8.729,32.43,25,37.438,46.183,5.586,23.633,4.439,24.61-19.365,23.453A259.137,259.137,0,0,0,502.547,176.146Z" transform="translate(1 0)"/><path class="cls-2" d="M626.53,413.818c-.216,1.833-2.257,3.435-4.549,4.907-9.751,6.264-19.568,12.434-29.171,18.919-4.323,2.919-7.99,2.073-11.888-.514-9.381-6.225-18.91-12.233-28.179-18.619-6.912-4.762-6.642-8.568.919-11.971,9.341-4.2,18.9-7.922,28.393-11.787a13.478,13.478,0,0,1,10.64-.094c9.461,3.948,18.957,7.815,28.392,11.824C623.829,407.649,626.661,408.963,626.53,413.818Z" transform="translate(1 0)"/><path class="cls-4" d="M519.427,350.086c6.765.751,11.342,4.808,11.873,12.492.476,6.876-6.391,13.764-13.182,13.017-7.42-.817-12.02-5.1-12.048-12.993C506.044,355.574,511.742,350.068,519.427,350.086Z" transform="translate(1 0)"/><path class="cls-5" d="M665.766,363.1c-1.046,7.593-5.509,12.347-12.935,12.329-7.528-.02-12.068-5.041-12.618-12.587-.522-7.155,6.083-13.3,13.327-12.713C661.306,350.756,665.089,355.485,665.766,363.1Z" transform="translate(1 0)"/></svg>