<svg id="Layer_1" data-name="Layer 1" xmlns="http://www.w3.org/2000/svg" viewBox="0 0 512 512"><defs><style>.cls-1{fill:#0076b3;}.cls-2{fill:#fefefe;}.cls-3{fill:#2187bd;}.cls-4{fill:#2288bd;}.cls-5{fill:#76b5d6;}.cls-6{fill:#77b5d6;}</style></defs><path class="cls-1" d="M.1,270v-5a7.877,7.877,0,0,0,0-6v-6a7.877,7.877,0,0,0,0-6v-5a1.315,1.315,0,0,0,0-2v-5c1.012-7.039,1.07-14.154,1.682-21.223,1.4-16.215,6.168-31.63,11.772-46.771,10.959-29.61,26.518-56.632,47.454-80.3,21.088-23.837,45.312-43.88,73.716-58.663C157.295,16.3,180.8,7.255,205.892,2.728c8.652-1.56,17.5-1.5,26.263-2.14,1.289-.095,2.666.428,3.853-.49h4a1.315,1.315,0,0,0,2,0h5a7.874,7.874,0,0,0,6,0h6a7.877,7.877,0,0,0,6,0h5a1.315,1.315,0,0,0,2,0h4c7.382.916,14.824,1.031,22.224,1.675,16.21,1.41,31.627,6.172,46.767,11.776,29.61,10.961,56.645,26.507,80.3,47.45,23.954,21.208,44.108,45.559,58.889,74.172,10.826,20.954,19.258,42.712,24.2,65.818,2.2,10.3,2.089,20.774,3.036,31.167.117,1.289-.425,2.666.493,3.853v4a1.315,1.315,0,0,0,0,2v5a7.877,7.877,0,0,0,0,6v6a7.877,7.877,0,0,0,0,6v5a1.315,1.315,0,0,0,0,2v5c-1.012,7.039-1.07,14.154-1.682,21.223-1.4,16.215-6.168,31.63-11.772,46.771-10.959,29.611-26.517,56.633-47.454,80.3-21.087,23.837-45.312,43.88-73.716,58.664-22.573,11.748-46.076,20.8-71.17,25.324-8.652,1.56-17.5,1.5-26.264,2.14-1.288.1-2.665-.428-3.852.49h-4a1.315,1.315,0,0,0-2,0h-6a5.547,5.547,0,0,0-5,0h-6a7.874,7.874,0,0,0-6,0h-5a1.315,1.315,0,0,0-2,0h-5c-7.04-1-14.153-1.07-21.222-1.682-16.214-1.4-31.629-6.169-46.769-11.77C137.4,487.5,110.4,471.918,86.718,451,66.439,433.09,48.708,412.874,34.9,389.451c-15.331-26-26.735-53.54-32.175-83.34-1.549-8.489-1.4-17.177-2.127-25.765C.5,279.22.957,278.007.1,276.993v-5A1.315,1.315,0,0,0,.1,270Z" transform="translate(0 0)"/><path class="cls-2" d="M511.9,236.009c-2.2-5.24-1.681-10.921-2.639-16.367C491.084,116.275,432.305,47.244,333.578,12.2,315.986,5.956,297.587,2.87,279,1.12c-1.045-.1-2.411.5-3-1.022Q391.825.1,507.658,0c3.6-.006,4.348.74,4.342,4.342Q511.807,120.175,511.9,236.009Z" transform="translate(0 0)"/><path class="cls-2" d="M236.008.1C230.591,2.253,224.77,1.98,219.143,2.79,114.3,17.876,29.27,96.764,6.164,200.522a294.6,294.6,0,0,0-4.992,31.5c-.117,1.05.445,2.417-1.074,2.991Q.1,119.676,0,4.342C-.006.738.742-.006,4.343,0Q120.174.194,236.008.1Z" transform="translate(0 0)"/><path class="cls-2" d="M275.992,511.9c5.24-2.2,10.921-1.68,16.368-2.639Q447.709,481.9,499.947,333.092c5.991-16.98,8.9-34.729,10.858-52.611.131-1.194-.582-2.747,1.1-3.488q0,115.457.1,230.912c.005,3.423-.672,4.1-4.095,4.1Q391.949,511.813,275.992,511.9Z" transform="translate(0 0)"/><path class="cls-2" d="M.1,276.993c2.213,5.058,1.929,10.561,2.692,15.856C17.9,397.737,96.732,482.7,200.524,505.835a294.6,294.6,0,0,0,31.5,4.992c1.049.118,2.417-.446,2.988,1.077q-115.455,0-230.911.1c-3.423.006-4.1-.672-4.1-4.1Q.191,392.45.1,276.993Z" transform="translate(0 0)"/><path class="cls-3" d="M253,.1a4.889,4.889,0,0,1-6,0Z" transform="translate(0 0)"/><path class="cls-3" d="M265,.1a4.89,4.89,0,0,1-6,0Z" transform="translate(0 0)"/><path class="cls-3" d="M.1,247c1.464,2,1.273,4,0,6Z" transform="translate(0 0)"/><path class="cls-4" d="M511.9,253c-1.272-2-1.467-4,0-6Z" transform="translate(0 0)"/><path class="cls-3" d="M.1,259c1.273,2,1.464,4,0,6Z" transform="translate(0 0)"/><path class="cls-4" d="M511.9,265c-1.467-2-1.272-4,0-6Z" transform="translate(0 0)"/><path class="cls-4" d="M247,511.9c2-1.466,4-1.277,6,0Z" transform="translate(0 0)"/><path class="cls-4" d="M259,511.9c1.666-1.19,3.332-1.364,5,0Z" transform="translate(0 0)"/><path class="cls-5" d="M242.005.1c-.666.979-1.332,1.214-2,0Z" transform="translate(0 0)"/><path class="cls-5" d="M271.994.1c-.666,1.214-1.333.979-2,0Z" transform="translate(0 0)"/><path class="cls-5" d="M.1,240.007c1.224.667.938,1.333,0,2Z" transform="translate(0 0)"/><path class="cls-6" d="M511.9,242.006c-.935-.666-1.23-1.332,0-2Z" transform="translate(0 0)"/><path class="cls-5" d="M.1,270c.938.666,1.224,1.333,0,2Z" transform="translate(0 0)"/><path class="cls-6" d="M511.9,272c-1.23-.666-.936-1.333,0-2Z" transform="translate(0 0)"/><path class="cls-6" d="M240.006,511.9c.667-1.22,1.333-.976,2,0Z" transform="translate(0 0)"/><path class="cls-6" d="M270,511.9c.666-.976,1.333-1.22,2,0Z" transform="translate(0 0)"/><path class="cls-2" d="M271.065,217.2c9.436-13.664,21.533-23.076,37.307-27.365a83.526,83.526,0,0,1,54.811,3.428c18.941,7.785,28.038,23.656,32.677,42.625a146.52,146.52,0,0,1,3.956,34.165c.179,36.481.052,72.963.212,109.444.016,3.621-1.123,4.384-4.518,4.35-16.823-.167-33.651-.22-50.472.027-4.114.06-4.913-1.3-4.908-5.09q.071-51.223-.241-102.445a52.047,52.047,0,0,0-4.586-21.821c-3.454-7.443-9.066-12.5-17.109-13.958-20.309-3.688-38.584,2.362-43.171,28.244-1.375,7.755-1.424,15.584-1.441,23.4-.062,28.819-.114,57.638.073,86.456.027,4.23-1.23,5.255-5.314,5.2-16.655-.225-33.316-.19-49.973-.016-3.46.037-4.478-.863-4.472-4.406q.162-91.7.021-183.407c0-3.061.538-4.335,4.014-4.294,16.323.189,32.65.16,48.974.018,3.149-.027,4.367.676,4.24,4.083C270.881,202.956,271.065,210.083,271.065,217.2Z" transform="translate(0 0)"/><path class="cls-2" d="M116.871,287.99c0-30.3.117-60.608-.125-90.909-.037-4.606,1.364-5.412,5.569-5.351,16.647.24,33.3.169,49.948.037,3.141-.025,4.283.723,4.278,4.1q-.146,91.908,0,183.817c0,3.42-1.177,4.169-4.331,4.146-16.815-.127-33.634-.185-50.448.033-3.934.051-5-1.027-4.981-4.968C116.945,348.6,116.871,318.293,116.871,287.99Z" transform="translate(0 0)"/><path class="cls-2" d="M181.153,130.88a34.548,34.548,0,1,1-69.095.078,34.548,34.548,0,1,1,69.095-.078Z" transform="translate(0 0)"/></svg>