<svg id="Layer_1" data-name="Layer 1" xmlns="http://www.w3.org/2000/svg" viewBox="0 0 400 400"><defs><style>.cls-1{fill:#fefefe;}.cls-2{fill:#262626;}</style></defs><path class="cls-1" d="M199.46051,399.906q-97.66344,0-195.3267.09392C.75137,400.00654.019,399.38473.02206,395.927Q.19453,200.08009,0,4.233C-.00429.33015,1.1652.01923,4.47251.02138Q200.04929.14807,395.62612,0c3.55473-.003,4.36841.66936,4.365,4.32213q-.18066,195.59715.00882,391.1944c.00409,3.98688-1.165,4.4785-4.713,4.47234Q297.374,399.819,199.46051,399.906Z" transform="translate(0 0)"/><path d="M199.875,276.91426q-45.473.00412-90.94576-.05173c-1.32964-.00311-3.56842,1.29306-3.82854-1.591-.24689-2.73755,1.86451-2.22592,3.38633-2.34757,17.96756-1.4357,31.55459-10.86231,42.71074-24.11212,23.07893-27.41013,34.01043-60.1764,40.80752-94.65748a342.14049,342.14049,0,0,0,6.29123-61.9731c.01055-.83261.07888-1.66458.08556-2.49713.01133-1.41214.11462-2.70055,2.02463-2.74076,2.3038-.04848,1.60635,1.70684,1.61262,2.82356a325.28162,325.28162,0,0,0,1.97537,33.906c4.04674,36.63173,11.91218,72.19551,30.74349,104.44825,7.757,13.28559,16.761,25.63346,29.78659,34.458,8.12233,5.50273,16.87617,9.23731,26.70224,10.30782,1.5609.17006,4.06545-.76847,3.86872,2.375-.18446,2.94732-2.47887,1.58651-3.77527,1.5898Q245.59791,276.96736,199.875,276.91426Z" transform="translate(0 0)"/><path class="cls-2" d="M205.85036,151.63964c-1.21961-1.52945-.72286-2.5747-.78527-4.05C206.56528,149.02542,205.76962,150.07888,205.85036,151.63964Z" transform="translate(0 0)"/></svg>