<svg id="Layer_1" data-name="Layer 1" xmlns="http://www.w3.org/2000/svg" viewBox="0 0 512 512"><defs><style>.cls-1{fill:#fe4500;}.cls-2{fill:#fefefe;}.cls-3{fill:#fe4201;}</style></defs><path class="cls-1" d="M256,511.808c-82.618,0-165.237-.1-247.854.192-6.784.024-8.156-1.369-8.146-8.151Q.359,256,0,8.146C-.01,1.364,1.364-.01,8.146,0Q256,.359,503.854,0c6.781-.01,8.156,1.364,8.146,8.146q-.358,247.851,0,495.7c.01,6.781-1.361,8.175-8.146,8.151C421.237,511.705,338.618,511.808,256,511.808Z" transform="translate(0 0)"/><path class="cls-2" d="M264.437,193.154c36.966,2.386,71.134,10.77,101.483,31.107,3.744,2.508,5.706,1.282,8.843-.57,21.524-12.711,43.445-8.838,56.085,9.645,12.955,18.945,8.351,41.089-11.837,56.445-2.412,1.834-4.614,2.985-4.35,6.968,2.829,42.778-20.668,70.447-54.317,91.193-34.841,21.481-73.613,28.8-114.1,27.145-34.1-1.392-66.651-9.323-95.754-27.788-33.089-20.994-56.149-48.435-53.261-90.67.325-4.764-2.764-5.675-5.317-7.573-18.592-13.82-23.279-36.714-11.215-55.014,12.109-18.367,35.323-23.38,54.815-11.307,4.787,2.965,7.863,3.288,12.819.047,27.859-18.219,59.075-26.64,91.921-28.8,7.735-.509,9.85-2.947,11.239-9.952,5.212-26.285,11.152-52.425,16.823-78.618,2.785-12.867,4.6-13.914,17.764-11.038,16.592,3.625,33.256,6.927,49.81,10.711,5.175,1.183,8.524.891,12.448-3.763,9.426-11.182,22.971-13.351,34.771-6.926a29.248,29.248,0,0,1,14.729,30.689c-2.282,12.248-13.764,22.26-26.244,22.884-13.767.689-25.159-6.541-28.988-20.446-1.682-6.1-4.955-7.37-9.8-8.356-13.688-2.786-27.595-4.846-40.958-8.758-8.509-2.49-10.417.714-11.827,7.739C275.045,142.937,269.76,167.664,264.437,193.154Z" transform="translate(0 0)"/><path class="cls-1" d="M194.078,256.533c15.915.232,27.5,12.18,27.36,28.208-.142,15.872-12.087,27.667-28,27.651-16.4-.016-28.221-12.264-27.856-28.859C165.929,267.621,177.882,256.3,194.078,256.533Z" transform="translate(0 0)"/><path class="cls-1" d="M319.118,256.533c15.988.226,27.427,12.039,27.3,28.2C346.3,300.7,334.479,312.4,318.5,312.392c-16.347-.013-28.327-12.384-27.934-28.845C290.94,267.673,302.958,256.305,319.118,256.533Z" transform="translate(0 0)"/><path class="cls-3" d="M255.865,379.956c-18.26-.027-36.127-2.276-52.663-10.647a80.887,80.887,0,0,1-12.259-8.024c-3.913-2.981-6.551-6.911-2.431-11.474,3.421-3.788,7.2-2.486,11.081.129,29.285,19.743,60.9,19.056,93.358,10.324a48.782,48.782,0,0,0,18.926-9.813c3.889-3.267,8.191-4.8,11.9-.367,3.889,4.645.858,8.43-2.874,11.526-15.9,13.189-35.181,16.368-54.837,18.3C262.7,380.24,259.267,379.956,255.865,379.956Z" transform="translate(0 0)"/></svg>