<svg id="Layer_1" data-name="Layer 1" xmlns="http://www.w3.org/2000/svg" viewBox="0 0 512 512"><defs><style>.cls-1{fill:#fefefe;}.cls-2{fill:#fe0000;}</style></defs><path class="cls-1" d="M256,511.9q-125.817,0-251.634.1C.715,512.006,0,511.283,0,507.632Q.174,256,0,4.366C0,.716.716,0,4.366,0Q256,.174,507.634,0C511.284,0,512,.716,512,4.366Q511.826,256,512,507.632c0,3.651-.715,4.374-4.366,4.368Q381.817,511.8,256,511.9Z" transform="translate(0)"/><path class="cls-2" d="M155.655,304.483c-8.12-3.738-15.676-6.837-22.885-10.6C103.662,278.678,87.283,254.5,85.7,221.8c-1.628-33.622,12.716-60.177,41.586-77.456q85.547-51.2,171.96-100.956c29.235-16.8,59.47-15.785,87.816,2.254,28.4,18.077,41.706,45.193,39.127,78.746-2.236,29.089-16.8,51.459-41.909,66.648-9.095,5.5-18.308,10.805-27.945,16.481,7.759,3.552,15.239,6.617,22.393,10.314,29.36,15.171,45.966,39.41,47.561,72.325,1.639,33.833-12.889,60.38-42.008,77.751q-84.942,50.675-170.562,100.207c-29.4,17.012-59.7,16.473-88.333-1.471-28.506-17.863-42-44.913-39.615-78.5,2.084-29.325,16.654-51.864,41.934-67.179C136.793,315.464,146.007,310.166,155.655,304.483Z" transform="translate(0)"/><path class="cls-1" d="M213.8,192.288l110.426,63.7L213.8,319.724Z" transform="translate(0)"/></svg>