<svg id="Layer_1" data-name="Layer 1" xmlns="http://www.w3.org/2000/svg" viewBox="0 0 512 512"><defs><style>.cls-1{fill:#fefb00;}.cls-2{fill:#fefefe;}</style></defs><path class="cls-1" d="M.276,511.724Q.276,261.683,0,11.642C-.022,1.911,1.91-.023,11.642,0Q256,.581,500.358,0C510.089-.023,512.023,1.91,512,11.642Q511.42,256,512,500.358c.023,9.731-1.91,11.664-11.642,11.642Q250.319,511.424.276,511.724Z" transform="translate(0 0)"/><path d="M256.52,438.735c-21.37,1.053-40.278-5.887-57.636-17a77.842,77.842,0,0,0-41.328-12.483c-16.174-.419-32.68-1.811-38.985-21.287-1.544-4.772-6.888-4.682-10.589-6.183-7.871-3.193-16.057-5.589-23.059-10.644C66.969,358.178,67.81,338.8,87.409,328.345c20.325-10.84,38.23-23.927,50.558-43.985,4.731-7.7,4.188-12.437-3.646-17.227a141.949,141.949,0,0,1-20.461-15.114c-10.815-9.664-12.173-22.331-7.679-35.171,4.58-13.084,15.532-20.123,28.757-18.485,13.5,1.673,12.921-4.977,12.97-14.269.269-51.116,26.841-87.383,74.022-101.7,47.04-14.278,98.032,2.235,125.008,40.844,12.89,18.449,17.467,39.548,17.082,61.679-.16,9.232.063,14.761,12.435,13.4,13.183-1.445,24.206,4.94,28.992,18.123,4.9,13.5,3.009,26.359-8.087,36.356a109.544,109.544,0,0,1-19.469,14.094c-9.073,5.1-8.5,10.429-3.49,18.3,11.5,18.076,27.195,31.187,45.955,40.816,10.042,5.154,19.411,10.53,19.308,23.594-.1,13.24-8.811,20.8-19.557,25.395-13.714,5.869-26.6,10.986-35.136,25.254-5.771,9.641-19.284,8.911-30.008,9.025A75.949,75.949,0,0,0,313.548,421.5C296.2,432.589,277.365,439.749,256.52,438.735Z" transform="translate(0 0)"/><path class="cls-2" d="M168.2,197.913c-1.277-28.135,1.548-51.737,19.7-71.733,23.843-26.27,64.514-36.23,101.64-23.305,33.687,11.728,53.758,40.438,54.452,78.24.209,11.359.441,22.766-.358,34.079-.708,10.021,2.882,11.625,11.281,7.908a126.852,126.852,0,0,1,13.281-4.714c7.226-2.276,14.394-2.739,18.855,4.772,4.793,8.07-.662,13.533-6.337,17.967-6.68,5.221-13.583,10.4-21.069,14.29-13.229,6.875-13.122,16.293-7.947,28.314,11.821,27.457,32.992,45.472,58.378,59.433,3.648,2.006,9.114,2.664,8.7,7.932-.314,4.047-5.163,5.141-8.413,6.874-5.855,3.121-12.289,4.584-18.628,6.477-7.695,2.3-16.741,4.062-17.275,15.659-.306,6.65-5.789,9.247-12.261,8.982-25.007-1.021-46.6,7.942-68,20.286-26.008,15-53.712,14.039-79.394-1.44-19.567-11.794-39.674-19.47-62.669-18.7-6.509.217-13.872-.793-14.365-8.232-.8-12.141-9.8-13.668-17.963-16.825-2.169-.838-4.732-.667-6.888-1.526-7.265-2.9-18.052-4.177-19.067-12.122-.941-7.368,10.136-8.211,15.886-11.767,21.813-13.486,39.654-30.39,50.142-54.259,6.806-15.488,5.559-20.055-8.132-29.2-7.45-4.975-15.169-9.649-22.078-15.3-4.735-3.872-8.86-9.147-5.325-16.1,3.687-7.25,10.257-7.91,17.106-6.13a149.408,149.408,0,0,1,17.346,6c7.86,3.118,10.15.3,9.517-7.58C167.752,209.14,168.2,202,168.2,197.913Z" transform="translate(0 0)"/></svg>