<svg id="Layer_1" data-name="Layer 1" xmlns="http://www.w3.org/2000/svg" viewBox="0 0 512 512"><defs><style>.cls-1{fill:#fefefe;}.cls-2{fill:#fd2c55;}.cls-3{fill:#25f3ed;}.cls-4{fill:#fc2c55;}.cls-5{fill:#25f2ec;}.cls-6{fill:#ed2950;}</style></defs><path d="M255.349,511.886q-125.011,0-250.024.114c-4.237.008-5.315-.651-5.311-5.164Q.245,256.144,0,5.452C0,.579,1.317,0,5.673.007Q256.017.189,506.361,0C510.8,0,512.005.687,512,5.48q-.248,250.692,0,501.384c0,4.572-1.168,5.139-5.343,5.131Q381,511.776,255.349,511.886Z" transform="translate(0 0)"/><path class="cls-1" d="M134.12,434.9c-3.188-3.307-7.641-5.253-10.075-9.372-9.729-9.417-15.474-21.39-20.281-33.638a130.027,130.027,0,0,1-8.508-60.064c5.38-60.836,54.738-109.319,111.9-116.723,4.749-.615,9.639-1.682,14.47-.122a3.017,3.017,0,0,1,.924.675c1.4,16.763.542,33.552.479,50.329-.02,5.387-3.785,5.333-7.684,4.506-16.778-3.559-31.671,1.239-45.118,10.89-28.62,20.54-30.253,65.207-3.38,88,3.24,2.748,6.417,5.558,9.568,8.4l2.615,2.462c3.727,3.182,7.774,5.949,11.622,8.979,32.067,25.25,79.695,8.841,89.485-30.773a78.44,78.44,0,0,0,2.1-18.986q-.073-130.335-.032-260.669c0-15.377.007-15.38,15.67-15.381,9.583,0,19.165-.047,28.747.029,2.936.023,6.033-.383,8.458,1.961a1.846,1.846,0,0,1,.473.783c1.462,1.117,1.9,2.77,2.308,4.434C343.1,92.1,354.7,109.5,371.568,123.562a14.468,14.468,0,0,1,1.756,1.855l9.432,8.221c13.277,11.489,27.75,20.844,45,25.257a6.509,6.509,0,0,1,3.144,2.056,2.094,2.094,0,0,1,.532.53c1.727,1.929,1.622,4.33,1.632,6.661.057,13.216.114,26.433-.013,39.648-.075,7.683-1.336,9.061-8.973,9.031-28.448-.113-54.436-8.859-78.961-22.735-2.629-1.487-5.275-5.253-8.226-3.414-2.386,1.488-.979,5.578-.984,8.5-.057,41.141.212,82.285-.139,123.423-.19,22.385-4.194,44.057-15.1,64.066-21.19,38.863-53.27,62.379-97.153,69.331-26.3,4.167-51.315-.466-75.339-11.45a43.747,43.747,0,0,1-9.095-5.887C137.371,437.475,135.918,435.962,134.12,434.9Z" transform="translate(0 0)"/><path class="cls-2" d="M138.4,437.517c13.418,7,27.2,12.807,42.216,15.726,58.458,11.364,118.092-19.8,141.99-74.423a131.956,131.956,0,0,0,11.065-53.367q.069-66.509.069-133.015c0-2.192-1.3-5.219.966-6.442,1.938-1.048,3.619,1.626,5.327,2.712,25.893,16.457,54.018,25.656,84.782,26.81,4.976.187,6.578-.885,6.491-6.1-.265-15.975.041-31.96.125-47.94,5.274.618,10.534,1.438,15.825,1.781,3.229.209,4.36,1.319,4.338,4.636-.13,20.243-.182,40.488.028,60.729.045,4.356-1.774,4.734-5.376,4.634-30.99-.862-59.367-9.989-85.434-26.6-1.612-1.027-3.183-2.117-4.816-3.108-.3-.183-.805-.026-1.32-.026-1.058,2.157-.484,4.516-.486,6.782-.041,44.11.088,88.22-.068,132.329-.129,36.658-12.88,68.305-39.124,94.046a128.7,128.7,0,0,1-174.7,4.844,24.7,24.7,0,0,1-2.094-2.347A.968.968,0,0,1,138.4,437.517Z" transform="translate(0 0)"/><path class="cls-3" d="M335.081,65.409c-14.7.086-29.4.459-44.089.112-5.652-.133-7.07,1.405-7.058,7.058q.283,134.907.125,269.817c-.009,36.388-27.3,62.794-63.371,60.593-17.106-1.044-31.365-8.576-41.66-22.739,12.394,4.383,24.917,6.857,38.141,3.935a58.823,58.823,0,0,0,46.4-57.351q.108-135.544-.079-271.09c-.019-6.756,1.967-7.9,8.084-7.771,18.958.394,37.93.257,56.893.056,4.126-.044,5.683,1.084,5.581,5.33C333.955,57.365,334.7,61.391,335.081,65.409Z" transform="translate(0 0)"/><path class="cls-3" d="M221.623,214.983c-13.017,1.834-26.17,2.891-38.634,7.626-43.389,16.482-71.751,46.766-83,91.96-9.459,38-1.467,73,20.632,105.036,1.288,1.866,3.36,3.332,3.425,5.924-7.311-2.366-11.547-8.586-16.027-13.951-32.417-38.821-41.58-82.761-23.7-130.145,17.946-47.546,53.842-74.781,104.047-82.749a111.349,111.349,0,0,1,28.7-.457c3.7.375,5.445,1.354,5.055,5.309C221.747,207.331,221.773,211.166,221.623,214.983Z" transform="translate(0 0)"/><path class="cls-2" d="M176.412,377.787c-31.3-14.954-40.622-59.43-17.95-87.435,15.066-18.612,34.867-25.817,58.422-21.209,4.989.976,5.14-.582,5.182-4.458.179-16.344-.725-32.7.479-49.029,5.56-1.159,11.012.561,16.522.6,3.523.024,3.418,2.353,3.416,4.8-.013,20.668-.113,41.338.08,62.006.04,4.323-1.183,4.6-5.109,3.869-26.845-5-50.257,5.239-63.456,28.571C162.136,336.467,163.987,357.473,176.412,377.787Z" transform="translate(0 0)"/><path class="cls-4" d="M373.324,125.417c-6.877-2.518-11.177-8.153-15.681-13.378C346.2,98.764,338.3,83.7,335.554,66.189A2.265,2.265,0,0,1,336.16,66c5.3-.072,11.214-1.643,15.743.2,5.434,2.208,2.2,9,3.042,13.671,2.753,15.292,7.993,29.419,16.993,42.11C372.681,123.026,373.479,124.021,373.324,125.417Z" transform="translate(0 0)"/><path class="cls-5" d="M430.9,160.951c-18.462-3.321-33.762-12.624-47.35-25.121-.507-.467-.54-1.45-.794-2.192,10.335,3.635,20.14,8.868,31.2,10.3,1.26.163,2.5.518,3.757.663C431.92,146.233,431.921,146.227,430.9,160.951Z" transform="translate(0 0)"/><path class="cls-6" d="M138.4,437.517l-.194,1.667a9.98,9.98,0,0,1-4.082-4.28A5.97,5.97,0,0,1,138.4,437.517Z" transform="translate(0 0)"/></svg>