<svg id="Layer_1" data-name="Layer 1" xmlns="http://www.w3.org/2000/svg" viewBox="0 0 512 512"><defs><style>.cls-1{fill:#40baf3;}.cls-2{fill:#fefefe;}.cls-3{fill:#74c1de;}</style></defs><path class="cls-1" d="M511.945,244.95v24.375c-.721,3.716-.372,7.5-.476,11.229-.371,13.274-2.772,26.2-5.932,39.028A237.483,237.483,0,0,1,492.394,358.4a275.771,275.771,0,0,1-16.667,32.11,258.394,258.394,0,0,1-26.313,35.706,254.828,254.828,0,0,1-34.326,32.37,250.133,250.133,0,0,1-44.9,28.308,246.763,246.763,0,0,1-52.815,19.129c-9.186,2.15-18.388,4.142-27.8,4.868-6.287.486-12.594.917-18.915.782-.635-.014-1.327-.215-1.9.271H244.95c-3.527-.7-7.124-.41-10.665-.476-14.244-.262-28.076-2.892-41.811-6.4a250.4,250.4,0,0,1-52.03-19.673,259.281,259.281,0,0,1-45.453-29.578A255.3,255.3,0,0,1,35.348,386.1a259.762,259.762,0,0,1-21.236-46.21A265.775,265.775,0,0,1,3.281,295.432C.691,279.219.867,262.914.94,246.605c.079-17.819,2.878-35.321,7.167-52.55A251.706,251.706,0,0,1,28.31,140.4,261.079,261.079,0,0,1,58.475,94.314,238.562,238.562,0,0,1,80.235,70.9a260.021,260.021,0,0,1,79.6-51.516A255.209,255.209,0,0,1,191.237,8.9a264.264,264.264,0,0,1,32.716-6.412,132.394,132.394,0,0,1,14.633-1.342c8.022-.2,16.044-.2,24.066-.244a226.149,226.149,0,0,1,54.307,6.649,250.813,250.813,0,0,1,56.4,20.816,255.183,255.183,0,0,1,55.7,38.517,268.076,268.076,0,0,1,36.073,40.5,255.251,255.251,0,0,1,32.733,61.846,263.737,263.737,0,0,1,11.1,40.329,150.406,150.406,0,0,1,2.461,23.307C511.593,236.9,511.362,240.942,511.945,244.95Z" transform="translate(0 0)"/><path class="cls-2" d="M511.945,244.95q-.813-8.153-1.628-16.3a244.33,244.33,0,0,0-9.949-47.841A254.739,254.739,0,0,0,243.445,2.125,255.363,255.363,0,0,0,20.139,161.531,252.366,252.366,0,0,0,2.163,242.653,256.788,256.788,0,0,0,7.1,309.4a250.614,250.614,0,0,0,30.285,77.661A254.456,254.456,0,0,0,133.78,480.41a249.569,249.569,0,0,0,65.588,25.065,243.117,243.117,0,0,0,43.113,6.037,4.337,4.337,0,0,1,2.469.433q-121.146,0-242.291.048C.619,512,0,511.669,0,509.44Q.1,256.1,0,2.754C0,.455.458,0,2.755,0Q256.1.1,509.441,0c2.231,0,2.553.618,2.552,2.657Q511.909,123.8,511.945,244.95Z" transform="translate(0 0)"/><path class="cls-2" d="M268.758,511.945c5.435-.547,10.867-1.123,16.305-1.634a229.8,229.8,0,0,0,38.623-7.2,251,251,0,0,0,68.408-29.906,255.074,255.074,0,0,0,84.222-86.181A252.764,252.764,0,0,0,511.5,272.087a25.491,25.491,0,0,1,.449-2.762q0,120.107.055,240.212c0,2.044-.42,2.465-2.463,2.463Q389.147,511.9,268.758,511.945Z" transform="translate(0 0)"/><path class="cls-2" d="M147.414,229.136c-10.515-8.367-18.266-18.739-22.229-31.643a61.622,61.622,0,0,1,4.139-47.535c1.522-3,1.542-2.95,3.814-.347C156.483,176.359,185,195.1,219.058,205.4a191.144,191.144,0,0,0,40.571,7.385c2.451.193,3.055-.221,2.546-2.856-5.7-29.551,9.8-57.88,37.973-69.234,20.363-8.2,40.194-7.277,59.145,4.36a49.436,49.436,0,0,1,10.181,8.048,5.129,5.129,0,0,0,5.485,1.644,133.422,133.422,0,0,0,34.306-12.91c.715-.386,1.475-.689,2.88-1.338-4.918,14.755-14.047,25.362-26.111,33.832,11.814-.858,22.856-4.4,34.075-8.818a7.609,7.609,0,0,1-1.834,3.354,124.43,124.43,0,0,1-26.541,26.853,5.746,5.746,0,0,0-2.618,5.43,175.552,175.552,0,0,1-16.034,78.37c-17.063,37.673-43.488,66.77-80.315,86.035-21.535,11.265-44.572,17.329-68.733,19.331a188.675,188.675,0,0,1-57.988-3.967,185.071,185.071,0,0,1-53.777-21.811A11.426,11.426,0,0,1,110.9,358.1c-.122-.1-.144-.32-.286-.667,34,3.025,64.77-5.21,92.087-25.837-4.763-.993-9.525-1.377-14.128-2.689q-30.717-8.76-43.131-38.167c-1.253-2.964-.975-3.171,2.087-2.929,7.265.576,14.53.829,21.711-.839.7-.163,1.537-.026,2.21-1-4.322-1.493-8.7-2.565-12.735-4.561-22.192-10.988-34.587-28.756-36.871-53.454-.4-4.349-.173-4.354,3.879-2.574a56.112,56.112,0,0,0,16.475,4.9,27.82,27.82,0,0,0,4.324.446C147.6,230.806,148.459,230.417,147.414,229.136Z" transform="translate(0 0)"/><path class="cls-3" d="M147.414,229.136A3.338,3.338,0,0,1,149.9,231.1a15.444,15.444,0,0,1-7.7-.819C143.881,229.644,146.06,231.267,147.414,229.136Z" transform="translate(0 0)"/></svg>