<svg id="Layer_1" data-name="Layer 1" xmlns="http://www.w3.org/2000/svg" viewBox="0 0 512.375 512.375"><defs><style>.cls-1{fill:#0c9e15;}.cls-2{fill:#fcfcfc;}.cls-3{fill:#fcfdfc;}.cls-4{fill:none;}.cls-5{fill:#fff;}</style></defs><path class="cls-1" d="M255.156,512.183c-82.18,0-164.359-.091-246.538.174-6.576.022-8.24-1.073-8.229-8.056Q.782,256.578.375,8.853C.362,1.228,2.736.4,9.325.4Q256.431.667,503.537.375c6.922-.009,8.8,1.337,8.787,8.617q-.376,247.155.051,494.312c.016,8.215-2.217,9.1-9.545,9.07C420.273,512.073,337.714,512.183,255.156,512.183Z"/><path class="cls-2" d="M104.089,409.706c6.559-23.884,12.35-45.729,18.632-67.431a26.624,26.624,0,0,0-1.755-20.52c-39.057-80.533-1.1-176.716,81.912-208.276,82.959-31.54,174.521,14.164,199.655,99.66,24.826,84.452-28.806,173.083-115.73,190.967-32.561,6.7-64.055,2.732-94.066-11.447a24.392,24.392,0,0,0-18.379-1.464C151.8,397.481,129.076,403.177,104.089,409.706Z"/><path class="cls-1" d="M139.385,371.214c16.522-27.079,8.423-51.248-1.516-78.31-24.339-66.266,18.443-142.712,85.72-159.935,72.681-18.607,143.343,25.839,156.7,99.52,9.045,49.9-7.176,91.737-46.945,122.523-39.954,30.93-84.672,34.578-130.4,13.566-11.562-5.312-21.406-7.17-33.226-2.845-8.706,3.185-18.016,4.715-27.057,6.983Z"/><path class="cls-3" d="M294.189,328.325c-24.157-2.614-46.649-14.313-66.675-31.312A172.949,172.949,0,0,1,187.945,249.1c-10-18-12.606-36.623.958-54.335,11.629-15.186,25.784-13.3,33.067,4.024,1.759,4.182,3.162,8.573,5.4,12.484,5.689,9.937,4.857,18.672-3.943,26.275-5.02,4.337-4.5,8.664-1.043,13.869a111.776,111.776,0,0,0,43.577,38.754c7.885,3.982,12.7,2.934,18.136-4.113,10.727-13.918,11.113-13.618,27.242-6.063,3.425,1.6,6.875,3.159,10.286,4.793,13.3,6.372,15.895,16.606,6.8,28.654C320.553,323.858,309.415,327.887,294.189,328.325Z"/><rect class="cls-4" width="512" height="512"/><rect class="cls-5" x="128.916" y="353.366" width="13.787" height="28.797" transform="translate(99.812 -22.619) rotate(15)"/></svg>