<svg id="Layer_1" data-name="Layer 1" xmlns="http://www.w3.org/2000/svg" viewBox="0 0 512 512"><defs><style>.cls-1{fill:#fefefe;}.cls-2{fill:#fe0000;}.cls-3{fill:#fe2020;}.cls-4{fill:#fcb5b5;}.cls-5{fill:#fd8e8e;}.cls-6{fill:#fe3c3c;}</style></defs><rect class="cls-1" width="512" height="512"/><path class="cls-2" d="M493.393,245.02452v3.377c-.56964,1.19949-.15033,2.47428-.28257,3.708q0,3.88068.0001,7.75874c.1317,1.24-.28676,2.52233.28247,3.73v3.93989c-.59487,1.10126-.13871,2.28905-.28254,3.42765.14,1.29324-.3157,2.62949.28254,3.88929V278.795c-.68673,3.41345-.40247,6.897-.46579,10.32346-.16277,8.8036-.10581,17.63531-.76493,26.39725-1.44575,19.21937-2.68744,38.56768-8.4369,57.097-6.17057,19.88648-19.69148,33.03814-39.4836,39.5473-8.49685,2.79449-17.40858,3.54019-26.24619,4.60895-10.416,1.25963-20.89573,1.71271-31.33382,2.68126-3.54043.32849-7.11645.37349-10.65939.4962-6.17947.21409-12.35691.59033-18.53387.82242-13.87045.52124-27.74.58359-41.61216.78016-4.02544.05706-8.05838.20048-12.08688.19358-20.92212-.036-41.84306.607-62.76342.25771-13.41409-.22391-26.82838-.07987-40.23924-.28389-12.65577-.19252-25.31685-.23814-37.966-.59816q-17.9656-.51132-35.91512-1.68581c-13.91252-.92554-27.83414-1.87967-41.65738-3.85226-10.36447-1.479-20.46194-3.683-29.53341-9.31038-15.07948-9.35433-24.272-22.762-28.09453-40.005a310.80683,310.80683,0,0,1-5.72565-39.98566c-1.0897-12.30828-1.95486-24.6171-2.18493-36.97947-.25806-13.86649-.6924-27.73361-.47425-41.59972.1798-11.42795-.00711-22.874.632-34.28026.6275-11.19933,1.372-22.39911,2.56241-33.57047a294.39527,294.39527,0,0,1,5.77114-36.57516,58.89412,58.89412,0,0,1,15.99114-28.6013A60.99744,60.99744,0,0,1,78.29344,97.537c12.2149-1.977,24.49751-3.20734,36.83966-4.04452,9.71612-.65906,19.43766-1.14469,29.15843-1.68887,17.41637-.975,34.84091-1.0629,52.27015-1.3578,12.00876-.20319,24.01873.1195,36.01774-.24685,14.07226-.42964,28.14573-.35133,42.2104-.15487,12.57048.17559,25.141-.03936,37.70616.23315,12.46781.27039,24.94782.1078,37.40122.62308,9.722.40227,19.45415.73311,29.17319,1.39244,7.09476.48129,14.21778.7307,21.3058,1.3307,14.73524,1.24732,29.64159,1.7864,43.85181,6.26155,19.66665,6.1935,32.91063,19.42515,39.38113,38.95248,3.77883,11.4043,5.062,23.38242,6.49837,35.2935a457.33445,457.33445,0,0,1,2.814,49.033c.04469,3.51762-.224,7.09633.4715,10.60371v3.377c-.59811,1.27584-.14242,2.62724-.28254,3.936C493.25045,242.39209,492.79507,243.746,493.393,245.02452Z"/><path class="cls-1" d="M493.393,233.76768c-.97909-.42885-.51375-1.30214-.53681-1.96234-.74366-21.25912-1.91048-42.49334-4.63039-63.60078-1.40749-10.9227-2.70456-21.97838-6.90515-32.24615-8.62644-21.08634-24.56108-33.3379-46.94292-37.2429-14.78552-2.57965-29.73073-3.66888-44.69212-4.6252-46.09043-2.94607-92.24539-3.66676-138.40674-3.73343-29.36712-.04241-58.73826.601-88.08792,1.698q-25.86205.96669-51.68795,2.828c-13.14959.95292-26.416,1.74824-39.18027,5.26709C48.73047,106.654,34.32972,122.267,28.79668,146.003c-3.61941,15.52682-5.143,31.355-6.37667,47.21961-1.83254,23.56576-2.80194,47.16387-2.50792,70.79638.21339,17.15259.80071,34.30721,2.16791,51.40837,1.46782,18.35959,2.704,36.82,7.82794,54.61852,6.70368,23.28577,22.319,37.53143,45.95638,42.61965,15.50613,3.33788,31.35331,4.14371,47.14681,5.22947,26.68285,1.83436,53.40949,2.63049,80.1372,3.14637,29.92629.57765,59.85688.882,89.79662.28252,23.641-.47339,47.28064-.96419,70.90293-1.94483,18.45013-.766,36.902-1.78035,55.25771-3.89864,10.10972-1.16666,20.34283-2.1279,29.80691-6.25062,19.09165-8.31672,30.80724-22.8427,35.41539-43.08366,3.45494-15.17558,5.0342-30.61465,6.30394-46.098,1.0881-13.26812,1.69295-26.559,2.21212-39.85662.01991-.51054-.21137-1.16.54909-1.39653q0,70.624.05015,141.24794c.00255,1.87118-.29676,2.33347-2.27695,2.33271Q256.06662,422.2842,20.967,422.38c-2.11365.00089-2.41178-.53474-2.41082-2.48215q.0805-163.8983-.00018-327.79663c-.001-1.94953.3003-2.48211,2.41178-2.48122q234.95885.09882,469.91768.00337c2.17369-.00087,2.56141.55154,2.55852,2.61568Q493.34473,163.00326,493.393,233.76768Z"/><path class="cls-3" d="M492.89658,260.26812q0-4.26821,0-8.53643.28788-.39531.49649.04693v8.44262C493.25447,260.52159,493.08775,260.52405,492.89658,260.26812Z"/><path class="cls-4" d="M492.92127,241.059c.14908-1.30573-.70041-2.73166.47177-3.91423v3.93989Q493.12614,241.64154,492.92127,241.059Z"/><path class="cls-5" d="M492.92127,241.059a2.04566,2.04566,0,0,1,.47177.02566v3.9399C492.35262,243.80759,492.96049,242.39484,492.92127,241.059Z"/><path class="cls-4" d="M493.393,274.85513c-1.17211-1.18276-.324-2.60812-.47067-3.914q.204-.583.47067-.02587Z"/><path class="cls-6" d="M493.393,251.77862q-.2491-.01959-.497-.04658c.07435-1.124-.50629-2.34517.497-3.33047Z"/><path class="cls-6" d="M492.89658,260.26812q.24788-.02675.49646-.04688v3.37706C492.38975,262.613,492.97032,261.39185,492.89658,260.26812Z"/><path class="cls-5" d="M493.393,270.91524l-.23455.02709-.23612-.00122c-.01544-1.15812-.51557-2.38318.47067-3.40292Z"/><path class="cls-1" d="M209.3328,185.29376c40.92154,23.62352,81.53728,47.0705,122.48178,70.70729L209.3328,326.70861Z"/><rect class="cls-1" x="492.42553" y="215.65957" width="10.21277" height="81.10638"/></svg>